# xmcd
#
# Track frame offsets:
#	150
#	13817
#	25525
#	38783
#	50387
#	63366
#	76436
#	91518
#	104273
#	117444
#	131930
#	146802
#	159123
#	173579
#	188321
#	201093
#	216335
#	228769
#	242737
#	255548
#	268471
#	281183
#	292434
#	304597
#	315443
#
# Disc length: 4426 seconds
#
# Revision: 1
# Processed by: cddbd v1.5.2PL0 Copyright (c) Steve Scherf et al.
# Submitted via: audiograbber 1.83.01
#
DISCID=61114819
DTITLE=Flashbacks Vol. 3 - Hot and Sexy - Copulation Blues
DYEAR=1900
DGENRE=
TTITLE0=Alberta Hunt - You Can't Tell The Difference After Dark
TTITLE1=Oscar`s Chicago Swingers - New Rubbing On That Darn Old Thing
TTITLE2=Sophie Tucker - He Hadn't Up Till Yesterday
TTITLE3=Oscar`s Chicago Swingers - I Wonder Who's Boogiein' My Woogie Now
TTITLE4=The Mississippi Mud Mashers - Bring It On Home To Grandma
TTITLE5=Frankie "Halfpint" Jaxon with the Harlem Hamfats - Wet It (Let The Good
TTITLE5=Work Go On)
TTITLE6=Cab Calloway - Nobody's Sweetheart
TTITLE7=Mary Dixon - Daddy,You Got Ev'rything
TTITLE8=Ethel Waters - My Handy Man
TTITLE9=Suzie and Butterbeans - Elevator Papa, Switchboard Mama
TTITLE10=Lil Johnson and Black Bob - Press My Button, Ring My Bell
TTITLE11=Bea Foote - Try And Get It
TTITLE12=State Street Swingers - Don't Tear My Clothes No.2
TTITLE13=Victoria Spivey - Black Snake Blues
TTITLE14=Washboard Rhythm Kings - Street Walkin' Blues
TTITLE15=Tampa Red`s Hokum Jug Band with Frankie "Halfpint" Jackson - My Daddy 
TTITLE15=Rocks Me
TTITLE16=The Hokum Boys - Caught Us Doin' It
TTITLE17=Clarence Williams - Organ Grinder Blues
TTITLE18=Buddy Burton and Irene Sanders - Electric Man
TTITLE19=Blind Boy Fuller - Shake It, Baby
TTITLE20=Bob Howe and Frankie Griggs - The Hottest Stuff In Town
TTITLE21=The Light Crust Doughboys - Pussy,Pussy,Pussy
TTITLE22=Mae West - A Guy What Takes His Time
TTITLE23=Art Fowler and his Ukulele - No Wonder She's A Blushing Bride
TTITLE24=Lucille Bogan - Shave'em Dry
EXTD=
EXTT0=
EXTT1=
EXTT2=
EXTT3=
EXTT4=
EXTT5=
EXTT6=
EXTT7=
EXTT8=
EXTT9=
EXTT10=
EXTT11=
EXTT12=
EXTT13=
EXTT14=
EXTT15=
EXTT16=
EXTT17=
EXTT18=
EXTT19=
EXTT20=
EXTT21=
EXTT22=
EXTT23=
EXTT24=
PLAYORDER=
